<svg width="13" height="13" viewBox="0 0 13 13" fill="none" xmlns="http://www.w3.org/2000/svg">
<path d="M11.8657 11.8557C11.5942 11.8557 11.3478 11.7457 11.1696 11.5675C10.9914 11.3893 10.8814 11.1429 10.8814 10.8715L10.8814 3.50328L2.2106 12.1741C1.82639 12.5583 1.20344 12.559 0.818528 12.1741C0.433622 11.7892 0.434318 11.1663 0.818529 10.782L9.48936 2.11121L2.12119 2.11121C1.5769 2.11121 1.13696 1.67128 1.13696 1.12698C1.13696 0.582679 1.5769 0.142742 2.12119 0.142742L11.8643 0.142742C11.9938 0.142742 12.1211 0.168416 12.2422 0.218531C12.4824 0.318064 12.6746 0.51028 12.7741 0.750412C12.8242 0.871522 12.8499 0.998874 12.8499 1.12834L12.8499 10.8714C12.8499 11.4157 12.41 11.8557 11.8657 11.8557Z" fill="url(#paint0_linear_11212_10428)"/>
<defs>
<linearGradient id="paint0_linear_11212_10428" x1="6.99243" y1="-5.13672" x2="18.1068" y2="7.08174" gradientUnits="userSpaceOnUse">
<stop stop-color="#5F8AC7"/>
<stop offset="0.175334" stop-color="#5F8AC7"/>
<stop offset="0.487847" stop-color="#78A293"/>
<stop offset="0.82" stop-color="#99C152"/>
<stop offset="1" stop-color="#A6CE39"/>
</linearGradient>
</defs>
</svg>
