<svg width="150" height="81" viewBox="0 0 150 81" fill="none" xmlns="http://www.w3.org/2000/svg">
<path d="M1.00098 8.49512V2.2564H5.08996V2.99107H1.89527V4.95509H4.88608V5.69897H1.89527V7.75202H5.08996V8.49512H1.00098Z" fill="#6D6F70"/>
<g clip-path="url(#clip0_12162_16590)">
<mask id="mask0_12162_16590" style="mask-type:luminance" maskUnits="userSpaceOnUse" x="-37" y="-38" width="223" height="157">
<path d="M-36.1538 118.873H185.612V-37.9319H-36.1538V118.873Z" fill="white"/>
</mask>
<g mask="url(#mask0_12162_16590)">
<path d="M8.42571 8.5752C7.92443 8.5752 7.47004 8.51145 7.06254 8.38501C6.65583 8.25804 6.30153 8.07655 6.00098 7.84053L6.31049 7.11456C6.51095 7.26813 6.71904 7.3951 6.93452 7.4952C7.14999 7.59582 7.37995 7.67089 7.62493 7.72068C7.86938 7.77099 8.13648 7.79628 8.42571 7.79628C8.92093 7.79628 9.28523 7.70777 9.51862 7.53049C9.75147 7.35374 9.86843 7.12088 9.86843 6.83165C9.86843 6.58352 9.78651 6.39228 9.62477 6.25636C9.46251 6.12096 9.17776 6.01164 8.77104 5.92893L7.80616 5.73427C7.23376 5.61626 6.80729 5.42318 6.52754 5.15449C6.24727 4.88634 6.10687 4.51887 6.10687 4.05263C6.10687 3.67542 6.20697 3.34483 6.40795 3.06166C6.60815 2.77849 6.88684 2.56039 7.24377 2.40682C7.60096 2.25351 8.01821 2.17685 8.4963 2.17685C8.93884 2.17685 9.34555 2.24007 9.71776 2.3673C10.0894 2.49374 10.4021 2.68103 10.6555 2.9289L10.3547 3.62801C10.0894 3.39804 9.80626 3.22841 9.50518 3.11935C9.2041 3.0103 8.86219 2.95524 8.47892 2.95524C8.02453 2.95524 7.66918 3.04981 7.41235 3.23842C7.15552 3.42755 7.02724 3.68438 7.02724 4.00838C7.02724 4.2681 7.10837 4.47172 7.27064 4.61897C7.4329 4.76675 7.70264 4.8787 8.08037 4.95535L9.04526 5.14106C9.6411 5.26539 10.0805 5.45558 10.3637 5.71241C10.6466 5.96871 10.7883 6.32116 10.7883 6.76949C10.7883 7.12984 10.6927 7.44541 10.5006 7.71673C10.3091 7.98831 10.0362 8.19851 9.68193 8.34919C9.32843 8.4996 8.90907 8.5752 8.42571 8.5752Z" fill="#6D6F70"/>
<path d="M14.2045 8.5752C13.7032 8.5752 13.2488 8.51145 12.8413 8.38501C12.4346 8.25804 12.0803 8.07655 11.7798 7.84053L12.0893 7.11456C12.2898 7.26813 12.4979 7.3951 12.7133 7.4952C12.9288 7.59582 13.1588 7.67089 13.4037 7.72068C13.6482 7.77099 13.9153 7.79628 14.2045 7.79628C14.6997 7.79628 15.064 7.70777 15.2974 7.53049C15.5303 7.35374 15.6472 7.12088 15.6472 6.83165C15.6472 6.58352 15.5653 6.39228 15.4036 6.25636C15.2413 6.12096 14.9566 6.01164 14.5499 5.92893L13.585 5.73427C13.0126 5.61626 12.5861 5.42318 12.3064 5.15449C12.0261 4.88634 11.8857 4.51887 11.8857 4.05263C11.8857 3.67542 11.9858 3.34483 12.1868 3.06166C12.387 2.77849 12.6656 2.56039 13.0226 2.40682C13.3798 2.25351 13.797 2.17685 14.2751 2.17685C14.7176 2.17685 15.1244 2.24007 15.4966 2.3673C15.8682 2.49374 16.1809 2.68103 16.4343 2.9289L16.1335 3.62801C15.8682 3.39804 15.5851 3.22841 15.284 3.11935C14.9829 3.0103 14.641 2.95524 14.2577 2.95524C13.8033 2.95524 13.448 3.04981 13.1912 3.23842C12.9343 3.42755 12.806 3.68438 12.806 4.00838C12.806 4.2681 12.8872 4.47172 13.0494 4.61897C13.2117 4.76675 13.4814 4.8787 13.8592 4.95535L14.8241 5.14106C15.4199 5.26539 15.8593 5.45558 16.1425 5.71241C16.4254 5.96871 16.5671 6.32116 16.5671 6.76949C16.5671 7.12984 16.4715 7.44541 16.2794 7.71673C16.0879 7.98831 15.815 8.19851 15.4607 8.34919C15.1072 8.4996 14.6879 8.5752 14.2045 8.5752Z" fill="#6D6F70"/>
<path d="M20.364 3.26528L19.0187 6.44206L18.8062 6.23897H21.9482L21.7709 6.44206L20.3993 3.26528H20.364ZM17.2046 8.49512L19.9834 2.2564H20.7707L23.594 8.49512H22.647L21.877 6.72523L22.2666 6.97311H18.4877L18.9034 6.72523L18.1334 8.49512H17.2046Z" fill="#6D6F70"/>
<path d="M25.5144 5.17688H27.0806C27.5232 5.17688 27.858 5.08232 28.085 4.89371C28.3118 4.70458 28.4259 4.43326 28.4259 4.0795C28.4259 3.71967 28.3118 3.44836 28.085 3.26528C27.858 3.08247 27.5232 2.99107 27.0806 2.99107H25.5144V5.17688ZM24.5938 8.49512V2.2564H27.2311C27.8978 2.2564 28.4135 2.41419 28.7794 2.72976C29.1456 3.04533 29.3284 3.48629 29.3284 4.05263C29.3284 4.42483 29.2457 4.7433 29.0805 5.00856C28.9156 5.27435 28.6822 5.47639 28.3817 5.61494C28.0806 5.75323 27.7263 5.82251 27.3196 5.82251L27.4613 5.68106H27.7002C27.9418 5.68106 28.1583 5.74322 28.3503 5.86677C28.5423 5.9911 28.7001 6.18866 28.8237 6.45998L29.718 8.49512H28.7091L27.8237 6.45102C27.7352 6.2092 27.5983 6.05274 27.4126 5.98214C27.2266 5.91102 26.9979 5.87572 26.7264 5.87572H25.5144V8.49512H24.5938Z" fill="#6D6F70"/>
<path d="M33.479 8.49512V2.2564H37.5672V2.99107H34.3728V4.95509H37.3636V5.69897H34.3728V7.75202H37.5672V8.49512H33.479Z" fill="#6D6F70"/>
<path d="M38.8853 8.49512V2.2564H39.5936L43.4252 7.28315H43.2042V2.2564H44.0624V8.49512H43.3636L39.5406 3.4689H39.7437V8.49512H38.8853Z" fill="#6D6F70"/>
<path d="M45.6992 8.49512V2.2564H49.7879V2.99107H46.5935V4.95509H49.5843V5.69897H46.5935V7.75202H49.7879V8.49512H45.6992Z" fill="#6D6F70"/>
<path d="M52.0271 5.17688H53.5933C54.0359 5.17688 54.3707 5.08232 54.5977 4.89371C54.8251 4.70458 54.9386 4.43326 54.9386 4.0795C54.9386 3.71967 54.8251 3.44836 54.5977 3.26528C54.3707 3.08247 54.0359 2.99107 53.5933 2.99107H52.0271V5.17688ZM51.1064 8.49512V2.2564H53.7438C54.4105 2.2564 54.9267 2.41419 55.2929 2.72976C55.6583 3.04533 55.8411 3.48629 55.8411 4.05263C55.8411 4.42483 55.7583 4.7433 55.5932 5.00856C55.4283 5.27435 55.1954 5.47639 54.8943 5.61494C54.5933 5.75323 54.2398 5.82251 53.8323 5.82251L53.974 5.68106H54.2129C54.4544 5.68106 54.6718 5.74322 54.8635 5.86677C55.055 5.9911 55.2128 6.18866 55.3369 6.45998L56.2307 8.49512H55.2218L54.337 6.45102C54.2487 6.2092 54.111 6.05274 53.9252 5.98214C53.7393 5.91102 53.5112 5.87572 53.2396 5.87572H52.0271V8.49512H51.1064Z" fill="#6D6F70"/>
<path d="M60.3458 8.5752C59.6553 8.5752 59.0756 8.44639 58.6067 8.19008C58.1375 7.93325 57.7851 7.56632 57.5491 7.08848C57.3133 6.61039 57.1953 6.04088 57.1953 5.37998C57.1953 4.7196 57.3207 4.15009 57.5715 3.67226C57.822 3.19416 58.1818 2.82538 58.6507 2.56592C59.1203 2.30672 59.6848 2.17685 60.3458 2.17685C60.8001 2.17685 61.1953 2.24007 61.5314 2.3673C61.8678 2.49374 62.1688 2.6784 62.4341 2.91995L62.1067 3.63696C61.9175 3.47733 61.7353 3.35089 61.5577 3.25633C61.381 3.16176 61.1979 3.09248 61.0093 3.04823C60.8202 3.00398 60.5992 2.98211 60.3458 2.98211C59.6316 2.98211 59.089 3.19153 58.7173 3.61062C58.3459 4.02919 58.1599 4.6224 58.1599 5.38893C58.1599 6.16785 58.338 6.76106 58.6949 7.16777C59.0521 7.57527 59.6137 7.77837 60.381 7.77837C60.6468 7.77837 60.9092 7.75361 61.1689 7.70329C61.4279 7.65298 61.6786 7.57791 61.921 7.47781L61.7442 7.91086V5.86677H60.2043V5.17688H62.5137V8.1237C62.2421 8.25962 61.9104 8.36868 61.5179 8.45086C61.1257 8.53384 60.7353 8.5752 60.3458 8.5752Z" fill="#6D6F70"/>
<path d="M65.4872 8.49512V5.56621L65.6909 6.14994L63.0625 2.2564H64.1241L66.0799 5.23826H65.8589L67.8145 2.2564H68.8413L66.2214 6.14994L66.4079 5.56621V8.49512H65.4872Z" fill="#6D6F70"/>
<path d="M73.6287 8.49512V3.02637H71.4961V2.2564H76.6817V3.02637H74.5493V8.49512H73.6287Z" fill="#6D6F70"/>
<path d="M78.6374 5.17688H80.2037C80.6462 5.17688 80.981 5.08232 81.2081 4.89371C81.4354 4.70458 81.549 4.43326 81.549 4.0795C81.549 3.71967 81.4354 3.44836 81.2081 3.26528C80.981 3.08247 80.6462 2.99107 80.2037 2.99107H78.6374V5.17688ZM77.7168 8.49512V2.2564H80.3541C81.0208 2.2564 81.5371 2.41419 81.9032 2.72976C82.2686 3.04533 82.4514 3.48629 82.4514 4.05263C82.4514 4.42483 82.3687 4.7433 82.2035 5.00856C82.0386 5.27435 81.8058 5.47639 81.5047 5.61494C81.2036 5.75323 80.8501 5.82251 80.4426 5.82251L80.5843 5.68106H80.8232C81.0648 5.68106 81.2821 5.74322 81.4739 5.86677C81.6654 5.9911 81.8232 6.18866 81.9472 6.45998L82.841 8.49512H81.8321L80.9473 6.45102C80.8591 6.2092 80.7213 6.05274 80.5356 5.98214C80.3496 5.91102 80.1215 5.87572 79.8499 5.87572H78.6374V8.49512H77.7168Z" fill="#6D6F70"/>
<path d="M86.4695 3.26528L85.1242 6.44206L84.9116 6.23897H88.0536L87.8764 6.44206L86.5048 3.26528H86.4695ZM83.3101 8.49512L86.0888 2.2564H86.8762L89.6994 8.49512H88.7525L87.9825 6.72523L88.3721 6.97311H84.5932L85.0088 6.72523L84.2389 8.49512H83.3101Z" fill="#6D6F70"/>
<path d="M90.6992 8.49512V2.2564H91.4075L95.2392 7.28315H95.0182V2.2564H95.8764V8.49512H95.1775L91.3546 3.4689H91.5577V8.49512H90.6992Z" fill="#6D6F70"/>
<path d="M99.6196 8.5752C99.1183 8.5752 98.6639 8.51145 98.2569 8.38501C97.8497 8.25804 97.4959 8.07655 97.1948 7.84053L97.5049 7.11456C97.7053 7.26813 97.9129 7.3951 98.1284 7.4952C98.3436 7.59582 98.5738 7.67089 98.8188 7.72068C99.0632 7.77099 99.3309 7.79628 99.6196 7.79628C100.115 7.79628 100.48 7.70777 100.712 7.53049C100.946 7.35374 101.062 7.12088 101.062 6.83165C101.062 6.58352 100.981 6.39228 100.819 6.25636C100.656 6.12096 100.372 6.01164 99.9649 5.92893L99 5.73427C98.4276 5.61626 98.0019 5.42318 97.7214 5.15449C97.4411 4.88634 97.3012 4.51887 97.3012 4.05263C97.3012 3.67542 97.4013 3.34483 97.6023 3.06166C97.8025 2.77849 98.0812 2.56039 98.4384 2.40682C98.7953 2.25351 99.2128 2.17685 99.6907 2.17685C100.133 2.17685 100.54 2.24007 100.912 2.3673C101.283 2.49374 101.596 2.68103 101.85 2.9289L101.549 3.62801C101.283 3.39804 101 3.22841 100.7 3.11935C100.398 3.0103 100.056 2.95524 99.6728 2.95524C99.2184 2.95524 98.863 3.04981 98.6062 3.23842C98.3499 3.42755 98.2216 3.68438 98.2216 4.00838C98.2216 4.2681 98.3022 4.47172 98.4645 4.61897C98.6267 4.76675 98.897 4.8787 99.2742 4.95535L100.239 5.14106C100.835 5.26539 101.275 5.45558 101.558 5.71241C101.841 5.96871 101.983 6.32116 101.983 6.76949C101.983 7.12984 101.887 7.44541 101.695 7.71673C101.503 7.98831 101.231 8.19851 100.876 8.34919C100.522 8.4996 100.104 8.5752 99.6196 8.5752Z" fill="#6D6F70"/>
<path d="M103.292 2.2569H104.213V8.49561H103.292V2.2569Z" fill="#6D6F70"/>
<path d="M107.354 8.49512V3.02637H105.221V2.2564H110.407V3.02637H108.274V8.49512H107.354Z" fill="#6D6F70"/>
<path d="M111.442 2.2569H112.363V8.49561H111.442V2.2569Z" fill="#6D6F70"/>
<path d="M114.761 5.37155C114.761 6.12649 114.926 6.71681 115.256 7.14143C115.587 7.56632 116.073 7.77837 116.717 7.77837C117.342 7.77837 117.826 7.56737 118.168 7.14591C118.51 6.72392 118.681 6.13255 118.681 5.37155C118.681 4.61054 118.511 4.02023 118.172 3.60166C117.833 3.18257 117.348 2.97316 116.717 2.97316C116.073 2.97316 115.587 3.18257 115.256 3.60166C114.926 4.02023 114.761 4.61054 114.761 5.37155ZM113.796 5.37155C113.796 4.71617 113.911 4.15009 114.141 3.672C114.371 3.19416 114.706 2.82538 115.146 2.56592C115.585 2.30672 116.109 2.17685 116.717 2.17685C117.318 2.17685 117.838 2.30672 118.274 2.56592C118.711 2.82538 119.049 3.19416 119.288 3.672C119.526 4.15009 119.646 4.71354 119.646 5.36259C119.646 6.01718 119.526 6.58536 119.288 7.06583C119.049 7.54709 118.709 7.91877 118.27 8.18113C117.83 8.44375 117.312 8.5752 116.717 8.5752C116.109 8.5752 115.587 8.44375 115.15 8.18113C114.713 7.91877 114.379 7.54709 114.145 7.06583C113.913 6.58536 113.796 6.0206 113.796 5.37155Z" fill="#6D6F70"/>
<path d="M121.08 8.49512V2.2564H121.788L125.62 7.28315H125.399V2.2564H126.257V8.49512H125.558L121.735 3.4689H121.938V8.49512H121.08Z" fill="#6D6F70"/>
<path d="M63.3526 25.4489H86.7778L94.9668 14.9162H63.3526H47.9702V25.4489V53.9048V64.4155H63.3526H90.1729V53.9048H63.3526V25.4489Z" fill="#0E5599"/>
<path d="M125.506 64.4155H110.124V28.1291H125.506V64.4155Z" fill="#0E5599"/>
</g>
</g>
<path d="M110.817 14.9163C104.725 14.9163 99.1048 17.5001 96.1098 21.6784L88.6051 32.1462C87.499 33.6893 85.4236 34.6437 83.1738 34.6437H44.0214L37.2661 45.6831H74.0341C79.2921 45.6831 84.1423 42.3549 86.7275 38.7487L91.8604 31.1197C92.9665 29.5769 95.1589 26.5474 99.9032 26.5474H133.593C138.963 26.5474 143.901 24.2309 146.46 20.5123L149.554 14.9168V14.9163H110.817Z" fill="url(#paint0_linear_12162_16590)"/>
<path d="M15.6495 53.9048V45.6831H33.1784L39.9313 34.6433H15.6495V25.4489H42.2728V14.9162H15.6495H0.26709V25.4489V53.9048V64.4155H15.6495H42.4698V53.9048H15.6495Z" fill="#0E5599"/>
<path d="M0.327145 78.665V72.3761H3.07465C3.76451 72.3761 4.29676 72.5396 4.67142 72.8667C5.05203 73.1938 5.24233 73.6488 5.24233 74.2316C5.24233 74.6181 5.1561 74.9482 4.98364 75.2217C4.81712 75.4953 4.57627 75.7064 4.26108 75.8551C3.94589 75.9978 3.5742 76.0692 3.14602 76.0692L3.27091 75.8997H3.5742C3.82398 75.8997 4.04699 75.9651 4.24324 76.0959C4.43949 76.2268 4.60006 76.426 4.72494 76.6936L5.64375 78.665H4.37705L3.44932 76.6222C3.36606 76.4141 3.2382 76.2773 3.06573 76.2119C2.89922 76.1465 2.69702 76.1138 2.45914 76.1138H1.47789V78.665H0.327145ZM1.47789 75.2663H2.88732C3.29172 75.2663 3.59799 75.1831 3.80613 75.0166C4.02023 74.8441 4.12727 74.5943 4.12727 74.2672C4.12727 73.9402 4.02023 73.6934 3.80613 73.5268C3.59799 73.3603 3.29172 73.2771 2.88732 73.2771H1.47789V75.2663ZM6.59065 78.665V72.3761H10.8279V73.2771H7.69679V75.0166H10.6227V75.9265H7.69679V77.7551H10.8279V78.665H6.59065ZM13.3331 78.665V73.3217H11.2547V72.3761H16.5624V73.3217H14.4839V78.665H13.3331ZM15.9827 78.665L18.8283 72.3761H19.7917L22.673 78.665H21.5044L20.7373 76.8988L21.2011 77.211H17.4278L17.9095 76.8988L17.1423 78.665H15.9827ZM19.3011 73.6071L18.0433 76.5866L17.8114 76.31H20.8086L20.6213 76.5866L19.3368 73.6071H19.3011ZM23.3688 78.665V72.3761H24.5196V78.665H23.3688ZM25.9038 78.665V72.3761H27.0546V77.6927H30.0162V78.665H25.9038Z" fill="#0E5599"/>
<defs>
<linearGradient id="paint0_linear_12162_16590" x1="37.2661" y1="30.2997" x2="149.554" y2="30.2997" gradientUnits="userSpaceOnUse">
<stop stop-color="#5785C4"/>
<stop offset="0.146932" stop-color="#5785C4"/>
<stop offset="0.914901" stop-color="#9FCA3A"/>
<stop offset="1" stop-color="#9FCA3A"/>
</linearGradient>
<clipPath id="clip0_12162_16590">
<rect width="149.554" height="81" fill="white" transform="matrix(1 0 0 -1 0 81)"/>
</clipPath>
</defs>
</svg>
